<svg version="1.1" xmlns="http://www.w3.org/2000/svg" viewBox="279 33 420 420" width="420" height="420">
<style>
    .ha-blue { fill: #038FC7; }
    .ha-darker-blue { fill: #1E618E; }
</style>
<!-- Circle -->
<path class="ha-blue" d="
M512.982361,79.037933
	C573.291626,80.071449 622.354431,103.912529 661.211487,149.056046
	C684.743408,176.395081 700.251099,207.867752 706.503174,243.387665
	C717.601501,306.440491 701.190308,362.111023 659.378540,410.298401
	C636.159058,437.058411 607.475525,455.963776 573.824219,467.074005
	C545.045288,476.575531 515.574463,478.723328 485.559631,474.627502
	C452.299805,470.088867 422.329163,457.679626 395.796631,437.208405
	C356.611053,406.974670 330.614899,367.960327 320.700043,319.304108
	C308.054749,257.248138 322.719360,201.403580 362.273621,152.234512
	C386.652496,121.929642 417.301880,100.126587 454.551910,88.241669
	C473.351501,82.243500 492.670898,78.913063 512.982361,79.037933
M422.689911,127.194557
	C416.858978,131.353806 410.745178,135.171844 405.245453,139.730652
	C379.841125,160.788712 361.065094,186.695343 349.315857,217.589005
	C338.988281,244.744507 335.671539,272.816681 339.695099,301.533325
	C344.279816,334.255035 356.918915,363.786682 378.287720,389.034729
	C418.424561,436.457825 469.577698,458.828094 531.746643,452.582794
	C577.717468,447.964661 615.832581,426.893036 645.561707,391.611206
	C680.214417,350.486176 694.713135,302.858612 685.346558,249.722672
	C675.516113,193.955505 645.146240,151.420059 596.011963,122.899841
	C563.130615,103.813721 527.341919,98.101906 489.955566,102.665619
	C466.023560,105.586975 443.773285,113.949097 422.689911,127.194557
z"/>
<!-- House bottom -->
<path class="ha-blue" d="
M609.061035,269.982971
	C609.117737,283.446594 609.117798,283.401978 596.282043,283.382996
	C578.301147,283.356384 560.320007,283.388062 542.339172,283.440247
	C540.013733,283.446991 537.675598,283.614960 535.366638,283.898193
	C529.606201,284.604736 526.200745,287.956268 526.278198,293.803253
	C526.378296,301.358978 524.398132,309.139893 528.151123,316.421967
	C528.420898,316.945465 528.390869,317.784302 528.187012,318.366943
	C524.840393,327.932983 525.443359,337.487579 527.797180,347.169830
	C529.212280,352.991180 524.655212,358.421722 518.804016,358.372772
	C506.477783,358.269653 507.781799,359.929962 507.789703,347.593658
	C507.803192,326.602020 507.828156,305.610352 507.806030,284.618744
	C507.798096,277.091583 507.025543,276.371826 499.451843,276.365265
	C490.122223,276.357178 480.792572,276.358643 471.462982,276.382141
	C465.026886,276.398376 464.174713,277.222107 464.169403,283.543427
	C464.150269,306.367493 464.005341,329.193268 464.266022,352.014313
	C464.325043,357.182556 462.649658,358.662933 457.684235,358.475677
	C448.867126,358.143219 440.028107,358.405304 431.198303,358.390594
	C421.030182,358.373688 416.882477,354.342316 416.864899,344.225098
	C416.820282,318.568726 416.853119,292.912201 416.854736,267.255737
	C416.855133,260.990601 416.854828,254.725494 416.854828,247.776749
	C412.710022,249.474777 410.714813,252.467117 408.069611,254.586212
	C403.410614,258.318604 400.962738,258.293488 396.868439,254.097977
	C385.330505,242.274857 386.562683,241.473923 397.162872,232.872849
	C400.652405,230.041428 404.353851,227.325012 407.260895,223.954437
	C412.235321,218.186813 418.502899,216.997314 425.572083,217.068939
	C438.731720,217.202255 451.894012,217.114334 465.054962,217.059418
	C470.892181,217.035049 475.462372,220.721939 480.632965,222.552109
	C484.685425,223.986511 485.118988,230.545486 481.897797,234.682693
	C479.120941,238.249161 480.854828,240.339981 483.293884,242.732285
	C485.707886,245.100006 487.509583,247.551773 491.622650,244.676392
	C498.641815,239.769440 504.075256,242.226547 506.038391,250.650314
	C506.514709,252.694275 506.785767,254.904388 509.442688,254.705368
	C512.720093,254.459885 516.528442,256.434265 519.108459,252.786438
	C519.676514,251.983292 519.904541,250.945862 520.434998,250.108734
	C522.410034,246.991852 524.637451,245.255646 527.618042,249.391647
	C530.601624,247.148361 532.982239,244.895859 537.460999,246.077911
	C540.655334,246.920990 542.559998,242.462280 544.725281,240.055923
	C546.506104,238.076920 544.884888,236.374908 543.832214,234.693893
	C539.692200,228.083176 542.322388,223.948914 549.294006,220.896164
	C565.675354,213.723114 582.581238,218.521301 599.176697,217.225037
	C600.826233,217.096191 602.522156,217.418396 604.151062,217.196655
	C608.424927,216.614792 611.817627,217.887482 615.029724,220.852966
	C621.022888,226.385895 627.384827,231.517120 633.521301,236.897675
	C638.076599,240.891846 638.365112,243.892151 634.366882,248.373947
	C625.758667,258.023071 623.567444,261.657471 613.282776,250.526627
	C612.513184,249.693710 611.545105,248.943588 609.059937,248.958038
	C609.059937,255.759247 609.059937,262.622833 609.061035,269.982971
z"/>
<!-- House roof -->
<path class="ha-darker-blue" d="
M449.999756,212.080139
	C441.039185,212.079529 432.578583,212.079529 424.222076,212.079529
	C423.408112,209.104630 425.411072,208.285965 426.682495,207.180344
	C452.576935,184.662964 478.518829,162.200119 504.405975,139.674377
	C510.670654,134.223206 515.114441,134.051239 521.564697,139.622498
	C533.667847,150.076248 545.694153,160.618790 557.764709,171.110306
	C559.000366,172.184280 560.319397,173.162354 562.084534,174.572128
	C563.573730,169.724182 562.742554,165.272659 562.906982,160.925613
	C563.174500,153.853180 563.896240,152.827545 570.912537,152.455811
	C577.062561,152.129944 583.234375,152.025650 589.392822,152.106110
	C594.988831,152.179214 596.347839,153.861679 596.454651,159.338181
	C596.717590,172.826721 597.228760,186.317596 596.363220,199.797012
	C596.137512,203.311111 597.121277,205.950943 600.075073,207.909531
	C601.143433,208.617950 602.229431,209.473434 602.276550,210.940414
	C601.136902,212.589081 599.494690,212.077332 598.093811,212.082367
	C585.595581,212.127350 573.097046,212.108475 560.598633,212.096786
	C557.939697,212.094299 555.395935,212.302811 554.020081,208.984787
	C552.978394,206.472458 549.913818,207.230377 547.771240,206.616226
	C542.571533,205.125793 540.032593,199.184845 542.867126,194.581802
	C546.060730,189.395676 544.604431,184.678268 539.116943,181.991821
	C537.128723,181.018494 535.978516,182.355927 534.645325,183.222488
	C527.573914,187.818680 521.635315,185.844772 520.166870,177.757660
	C519.166626,172.249008 515.518616,173.214630 511.988831,172.972382
	C508.446838,172.729309 506.617584,173.923630 505.908569,177.771927
	C504.476898,185.542694 498.104858,188.074814 491.776062,183.267090
	C488.037231,180.426865 486.179077,182.432663 483.848694,184.759247
	C481.354187,187.249710 478.274414,189.531067 481.998993,193.328217
	C485.277527,196.670593 484.499939,200.232819 482.574585,203.858826
	C482.340363,204.299927 482.139008,205.107239 481.870331,205.130020
	C475.772461,205.646866 471.860046,211.388489 465.986298,211.995529
	C460.875763,212.523712 455.665771,212.089615 449.999756,212.080139
z"/>
<!-- Cable and bottom server rack -->
<path class="ha-darker-blue" d="
M618.966187,399.380402
	C610.640381,399.385315 602.809265,399.435089 594.979065,399.366577
	C592.656250,399.346283 591.000366,400.042114 589.366577,401.855042
	C584.403809,407.362152 578.380981,407.397614 573.503113,401.941254
	C571.729919,399.957794 569.820435,399.384552 567.369385,399.387299
	C545.043335,399.412201 522.717102,399.436829 500.391510,399.335693
	C497.428589,399.322266 495.535370,400.449951 493.567963,402.574493
	C489.721497,406.728241 483.042816,406.695190 479.227997,402.902710
	C475.344971,399.042480 475.052612,393.116730 479.320801,389.097626
	C482.683044,385.931641 482.304413,382.158997 482.321045,378.478516
	C482.387421,363.820679 482.135834,349.161682 482.118011,334.502991
	C482.113831,331.065369 481.635132,328.175323 479.057678,325.434570
	C474.992676,321.111969 475.393219,315.384003 479.371796,311.585083
	C483.283691,307.849854 489.194672,307.825073 492.874298,311.528473
	C497.056793,315.738037 497.225952,321.218414 492.862000,325.767853
	C490.703674,328.017883 489.898376,330.342102 489.911896,333.345184
	C489.983917,349.339172 489.921173,365.333740 489.947906,381.328003
	C489.958801,387.847595 493.865967,391.765686 500.414551,391.767761
	C522.740540,391.774811 545.067322,391.622894 567.391907,391.786438
	C572.266785,391.822144 574.885864,388.903839 576.653870,385.482330
	C579.517517,379.940460 577.471313,377.204620 571.176697,377.196594
	C560.513550,377.182953 549.850220,377.247620 539.187256,377.206268
	C533.231384,377.183197 531.238831,375.403839 531.021912,369.634460
	C530.859558,365.314148 530.941711,360.969452 531.202942,356.653015
	C531.436279,352.796326 533.513489,350.825775 537.630127,350.528137
	C548.953003,349.709351 560.278931,350.175232 571.601196,350.097717
	C587.928406,349.985962 604.257080,350.026550 620.584839,350.083069
	C630.042053,350.115845 631.273682,351.389893 631.343933,360.618195
	C631.368042,363.783569 631.433716,366.951233 631.348328,370.114288
	C631.207764,375.319916 629.617615,377.044708 624.418274,377.103485
	C613.256531,377.229614 602.092346,377.128479 590.930115,377.226929
	C588.940125,377.244476 586.001953,376.262909 585.530884,379.273163
	C585.094971,382.059296 584.265259,385.152527 586.941956,387.693237
	C589.831726,390.436157 592.777832,392.055328 597.066101,391.885590
	C606.381836,391.516937 615.722168,391.755005 625.052368,391.776154
	C627.776794,391.782318 630.927368,391.778931 631.063110,395.418488
	C631.216919,399.543823 627.831848,399.324219 624.960327,399.364807
	C623.127563,399.390717 621.294250,399.376312 618.966187,399.380402
M542.789246,360.178223
	C539.965149,363.943207 540.403442,366.942596 543.931824,367.741516
	C545.849731,368.175812 547.530457,367.643768 548.802734,366.095551
	C549.853760,364.816528 549.995605,363.346039 549.211731,361.940765
	C547.915771,359.617493 545.965576,358.777863 542.789246,360.178223
z"/>
<!-- Top server rack -->
<path class="ha-darker-blue" d="
M531.606689,310.972198
	C530.741028,305.599030 530.960632,300.611084 531.206543,295.624420
	C531.446228,290.766815 533.856323,288.570587 538.874390,288.591034
	C563.821838,288.692749 588.769897,288.622040 613.717773,288.609711
	C617.544678,288.607849 621.372192,288.549225 625.198364,288.597565
	C629.254028,288.648773 631.331238,290.791901 631.367493,294.827301
	C631.406372,299.154358 631.423401,303.483368 631.338501,307.809357
	C631.235046,313.078735 629.382507,315.071930 624.097168,315.159454
	C615.277771,315.305481 606.454651,315.236359 597.633057,315.241943
	C578.491760,315.254120 559.350342,315.214020 540.209412,315.300476
	C536.659790,315.316498 533.562134,314.845367 531.606689,310.972198
M545.499207,297.397461
	C542.709839,297.737061 540.700928,299.153381 540.696594,302.063446
	C540.693298,304.256500 542.264465,305.660431 544.528992,305.892517
	C546.697205,306.114777 548.591187,305.392731 549.324036,303.233856
	C550.299500,300.359894 548.960754,298.476044 545.499207,297.397461
z"/>
<!-- Middle server rack -->
<path class="ha-darker-blue" d="
M585.000000,346.299561
	C569.686157,346.298065 554.872192,346.317657 540.058411,346.283905
	C533.022583,346.267853 531.163086,344.493317 531.084717,337.409485
	C531.040588,333.426727 531.441711,329.440613 531.581726,325.453857
	C531.718994,321.545227 533.842346,319.661957 537.599182,319.659302
	C566.893738,319.638580 596.188354,319.659454 625.482910,319.672607
	C629.371460,319.674347 631.321411,321.683502 631.354370,325.529114
	C631.391418,329.856293 631.396790,334.184387 631.351501,338.511414
	C631.291626,344.234039 629.332703,346.230652 623.450012,346.263519
	C610.800354,346.334259 598.150024,346.293671 585.000000,346.299561
M549.600525,333.281342
	C549.499878,329.749390 547.551819,327.912109 544.197571,328.618042
	C541.272705,329.233643 540.571289,331.709320 541.345764,334.479736
	C541.788574,336.063843 543.025330,337.031982 544.551392,337.237518
	C547.020935,337.570129 548.555054,336.154877 549.600525,333.281342
z"/>
<!-- Gear center -->
<path class="ha-darker-blue" d="
M516.101196,196.712280
	C531.282776,199.882980 533.445374,217.211960 526.769653,225.035049
	C521.430847,231.291534 512.031677,233.501526 505.139404,229.842453
	C497.559540,225.818329 493.896332,217.236816 496.330109,209.205750
	C498.999512,200.397156 506.277039,195.674271 516.101196,196.712280
z"/>
<!-- Server spark bottom -->
<path class="ha-blue" d="
M650.787598,351.274963
	C652.795471,353.681274 653.674988,356.053375 651.125916,358.020477
	C648.760071,359.846069 646.731873,358.136749 645.057800,356.468353
	C642.955200,354.372772 640.842285,352.249634 639.040100,349.903168
	C637.714050,348.176666 637.737366,346.108063 639.619019,344.590057
	C641.342712,343.199493 643.069641,343.730469 644.532837,345.100677
	C646.583679,347.021149 648.544861,349.037323 650.787598,351.274963
z"/>
<!-- Server spark top -->
<path class="ha-blue" d="
M648.403748,317.433533
	C647.073730,318.715637 646.032043,319.775635 644.917419,320.752228
	C643.128418,322.319580 641.149780,323.041840 639.231934,321.095703
	C637.333557,319.169312 638.037109,317.074097 639.541504,315.332214
	C641.368774,313.216431 643.417542,311.290955 645.385864,309.298309
	C647.198975,307.462860 649.359070,306.504852 651.469238,308.464508
	C653.635620,310.476379 652.541687,312.677979 650.978333,314.605865
	C650.252869,315.500458 649.435181,316.320251 648.403748,317.433533
z"/>
<!-- Server spark center -->
<path class="ha-blue" d="
M658.508545,332.989014
	C658.053406,336.006378 656.128662,336.800110 653.826843,336.852203
	C651.030029,336.915466 648.223816,336.851379 645.430664,336.688843
	C643.199524,336.559021 641.691711,335.457214 641.613525,333.005249
	C641.540894,330.725372 642.904358,329.816376 644.943604,329.488861
	C648.225220,328.961792 651.515076,328.939972 654.804626,329.296082
	C656.785034,329.510498 658.230713,330.444031 658.508545,332.989014
z"/>
</svg>
